# xmcd
#
# Track frame offsets:
#	150
#	14216
#	31125
#	43284
#	61006
#	80264
#	123100
#	138296
#	152708
#	175515
#	191189
#	203586
#
# Disc length: 2894 seconds
# Revision: 0
# Processed by: cddbd v1.5.2PL0 Copyright (c) Steve Scherf et al.
# Submitted via: dBpowerAMP V12.0
#
DISCID=970b4c0c
DTITLE=Devon Allman - Ragged And Dirty
DYEAR=2014
DGENRE=Blues
TTITLE0=Half The Truth
TTITLE1=Can't Lose 'Em All
TTITLE2=Leavin'
TTITLE3=I'll Be Around
TTITLE4=Traveling
TTITLE5=Midnight Lake MIchigan
TTITLE6=Ten Million Slaves
TTITLE7=Blackjack Heartattack
TTITLE8=Back To You
TTITLE9=Times Have Changed
TTITLE10=Ragged And Dirty
TTITLE11=Leave The City
EXTD=
EXTT0=
EXTT1=
EXTT2=
EXTT3=
EXTT4=
EXTT5=
EXTT6=
EXTT7=
EXTT8=
EXTT9=
EXTT10=
EXTT11=
PLAYORDER=
